<svg width="1152" height="783" viewBox="0 0 1152 783" fill="none" xmlns="http://www.w3.org/2000/svg">
<path d="M125.356 18.096C123.729 24.8797 104.657 64.0963 88.075 95.7856C66.7677 136.504 48.7244 195.874 42.2571 232.352C33.2625 283.084 20.4054 332.918 13.989 362.628C10.167 380.325 10.2939 433.873 12.7712 516.324C15.9174 621.035 59.3891 680.408 82.4871 706.034C95.7802 720.782 121.879 726.147 153.644 734.987C194.295 746.299 285.214 750.46 393.64 750.739C449.195 750.882 477.06 740.968 504.901 734.365C533.404 727.606 591.776 726.715 701.122 726.948C767.395 727.089 855.561 727.727 904.122 728.835C975.026 730.453 1003.41 748.32 1045.74 763.171C1058.54 767.659 1071.56 772.493 1078.76 770.79C1104.98 764.582 1097.52 723.296 1105.55 697.573C1121.39 646.822 1131.61 579.131 1137.97 534.773C1140.06 520.161 1140.44 423.998 1139.69 282.553C1139.29 206.141 1109.93 147.281 1082.31 108.026C1056.35 71.1293 1025.25 67.2935 1002.83 61.6053C955.063 49.4818 866.702 34.3495 773.741 22.1379C749.811 18.9944 730.913 15.9289 659.057 14.0999C587.2 12.2709 462.954 11.8051 368.305 11.4268C273.657 11.0485 212.371 10.7717 177.707 11.267C143.044 11.7624 136.861 13.0382 120.099 16.0709" stroke="black" stroke-width="22" stroke-linecap="round"/>
</svg>
