<svg width="1094" height="790" viewBox="0 0 1094 790" fill="none" xmlns="http://www.w3.org/2000/svg">
<path d="M18.0367 46.4677C18.0367 47.0617 18.0367 47.6557 18.975 130.518C19.9133 213.38 21.7899 378.493 20.8462 475.253C19.6735 595.504 11.43 660.84 12.219 725.459C12.5042 748.812 17.4701 752.816 22.5626 756.026C43.6901 769.345 122.734 766.46 209.885 755.914C245.281 751.63 295.652 742.363 360.791 746.069C421.06 749.498 465.085 766.646 506.183 769.286C621.982 776.724 706.507 760.187 743.829 754.423C771.936 750.083 800.687 738.653 837.104 727.471C922.096 701.373 965.326 744.888 993.414 761.455C1002.86 767.027 1010.67 776.136 1019.32 778.417C1042.12 784.425 1019.14 720.282 1021.05 701.491C1023.49 677.543 1051.39 667.449 1057.45 628.44C1062.72 594.422 1068.54 566.797 1074.37 497.059C1078.92 442.593 1081.2 349.004 1082.55 296.741C1084.53 220.22 1079.58 182.597 1068.51 145.039C1046.62 70.7232 1018.54 61.0843 972.538 26.5176C945.313 6.06164 910.992 15.8397 840.655 13.6548C778.931 11.7375 664.304 10.0929 547.958 11.5695C431.611 13.0461 317.004 18.1831 254.694 21.2277C152.048 26.362 77.6497 26.2953 31.2435 25.9553C22.0294 27.089 17.5944 29.8431 11 37.6309" stroke="black" stroke-width="22" stroke-linecap="round"/>
</svg>
