<svg width="1131" height="834" viewBox="0 0 1131 834" fill="none" xmlns="http://www.w3.org/2000/svg">
<path d="M58.7883 25.2408C58.5858 25.0383 58.3833 24.8358 56.3113 26.6317C6.06382 70.1825 42.0909 216.379 22.6445 242.047C7.98569 261.396 8.8647 292.149 15.98 329.253C24.0803 371.493 39.2988 406.037 41.6921 451.061C50.4058 614.99 54.4321 640.734 64.4086 666.229C74.2425 691.358 58.9733 728.998 46.5594 763.087C38.3242 785.701 29.0483 803.865 26.8709 813.303C20.0261 842.97 122.011 793.155 155.775 774.689C184.984 758.714 214.454 746.002 259.155 741.651C322.288 735.506 391.747 745.414 448.622 752.106C506.51 758.917 547.034 752.819 582.521 749.296C713.361 736.308 783.789 725.114 814.609 729.091C837.967 732.105 898.072 735.843 948.162 730.822C980.906 727.539 1008.14 727.946 1020.46 723.47C1041.85 715.699 1051.53 691.571 1063.13 652.239C1072.04 621.984 1084.3 575.604 1096.44 536.48C1116.43 472.057 1111.18 413.379 1116.72 379.47C1127.75 311.955 1105.87 247.422 1097.76 197.182C1092.66 165.602 1070.25 111.596 1003.6 51.5644C978.02 28.5236 947.145 33.2217 897.556 25.3735C842.952 16.7313 803.666 14.9654 742.854 14.0709C687.266 13.2532 581.477 11.4146 523.509 11.03C458.599 10.5994 436.567 14.8558 379.319 18.1678C267.736 24.6233 187.506 18.3447 170.588 14.9867C154.332 12.0135 119.038 10.3449 76.8861 12.3899C61.8906 14.6846 59.879 19.5313 57.8065 34.9163" stroke="black" stroke-width="22" stroke-linecap="round"/>
</svg>
