<svg width="1132" height="799" viewBox="0 0 1132 799" fill="none" xmlns="http://www.w3.org/2000/svg">
<path d="M59.1634 27.6616C59.1634 27.7643 59.1634 27.867 59.22 95.8323C59.2767 163.798 59.3901 299.622 60.1056 410.28C60.8212 520.937 62.1355 602.312 62.0934 646.694C62.0307 712.899 37.3821 745.047 25.8446 761.703C18.6905 772.032 12.2862 778.657 11.0475 784.226C10.5305 786.55 14.5418 787.825 18.9633 787.862C39.3098 788.033 54.6494 782.35 70.2546 776.616C92.8668 768.308 137.575 756.069 169.888 747.474C193.605 741.164 217.768 741.662 265.188 734.724C277.674 732.898 288.354 731.971 326.111 731.453C363.869 730.935 428.405 731.027 463.013 731.298C511.714 731.679 534.667 735.41 550.591 737.997C565.615 740.439 577.776 741.55 600.072 742.175C655.074 743.718 708.731 748.462 735.762 757.621C767.783 768.469 818.521 769.64 838.502 767.242C871.943 763.228 911.393 764.623 959.387 775.129C984.426 780.611 999.81 770.493 1013.59 760.614C1026.28 751.51 1039.05 746.162 1051.38 743.677C1065.28 740.873 1076.85 727.446 1083.28 717.007C1094.18 699.315 1099.72 657.591 1104.21 619.455C1109.39 575.352 1110.22 538.284 1112.87 524.643C1117.04 503.189 1115.27 455.294 1118.95 404.207C1121.11 374.135 1119.76 317.708 1117.44 267.946C1115.13 218.184 1110.5 176.728 1107.68 153.87C1103.74 121.935 1086.64 91.5199 1071.95 62.1626C1066.06 50.4049 1048.94 45.2026 1028.86 37.2164C1012.59 30.7486 998.508 28.2539 981.541 27.383C945.451 25.5305 909.429 25.2058 863.73 22.5429C830.525 20.6081 776.819 21.2936 739.448 22C682.584 23.0748 650.636 29.4847 613.378 35.0322C550.369 44.4137 504.343 38.0416 493.679 36.2043C477.754 33.4606 463.533 31.3663 447.364 28.0073C427.62 23.9057 399.677 19.1947 361.755 14.2441C285.902 4.34184 272.696 20.1729 254.652 21.1864C232.355 22.4389 215.117 22.241 194.39 23.5561C109.393 28.9491 99.0938 32.2979 88.4549 28.6048C83.2187 26.7872 78.6412 23.3992 72.1499 24.1545C68.8965 24.8672 65.7258 26.2488 62.7374 27.0987C59.749 27.9486 57.0388 28.225 46.5387 28.5097" stroke="black" stroke-width="22" stroke-linecap="round"/>
</svg>
