<svg width="382" height="28" viewBox="0 0 382 28" fill="none" xmlns="http://www.w3.org/2000/svg">
<path d="M165.122 25.2966C180.577 23.9983 196.036 22.9977 211.531 22.4288C220.226 22.1099 228.92 21.9273 237.62 21.7679C249.378 21.5523 261.764 21.6689 273.264 18.7548C273.87 18.6013 272.03 18.5466 271.411 18.4546C270.118 18.2622 268.809 18.1687 267.513 18.0073C264.287 17.6052 261.079 17.3231 257.841 17.0495C246.716 16.1085 235.557 15.4854 224.394 15.3865C191.811 15.0971 159.89 15.1468 127.398 18.2282C116.969 19.2175 106.576 20.3922 96.1631 21.5444C93.7697 21.8091 86.5365 21.6389 84.871 23.9353C84.2174 24.8365 87.0975 23.9274 88.2103 23.8944C90.1592 23.8369 92.091 23.863 94.0389 23.9339C100.244 24.1593 106.456 24.0406 112.657 23.6843C130.929 22.6345 149.274 22.1291 167.572 21.4504C203.115 20.1324 238.604 16.9707 274.107 14.9715C284.733 14.3736 295.326 13.2175 305.952 12.685C311.915 12.3862 320.064 13.0718 325.51 10.1213C326.635 9.51152 322.97 9.79203 321.702 9.62223C319.449 9.32103 317.236 9.04694 314.968 8.86681C307.444 8.26982 299.823 8.45632 292.277 8.05767C270.449 6.90405 248.585 6.42025 226.717 6.40696C181.127 6.38038 134.796 6.67911 89.3609 10.6395C71.5195 12.1948 50.5033 11.3291 33.4164 17.4009C32.1107 17.865 36.1897 17.4511 37.5702 17.5677C40.2402 17.7936 42.954 17.6012 45.6329 17.7774C53.9804 18.3271 62.3107 17.7262 70.6617 17.5062C95.5774 16.8482 120.543 16.7517 145.494 16.2192C173.028 15.6311 200.438 12.7637 227.932 11.3896C259.273 9.82307 290.605 8.90124 321.934 7.13733C336.684 6.30656 351.436 6.05951 366.204 6.09347C368.305 6.09839 378.214 7.31746 379.643 5.65838C380.61 4.53626 376.722 5.16374 375.258 4.93636C371.95 4.42255 368.631 4.14699 365.302 3.80887C356.363 2.90231 347.354 2.22602 338.368 2.10397C311.005 1.73288 283.613 2.82351 256.255 2.29346C226.04 1.70827 195.554 3.42542 165.326 4.15973C138.128 4.8207 110.808 3.36243 83.5883 3.55732C56.5578 3.75124 29.0406 8.24831 2.02539 6.23586" stroke="black" stroke-width="4.05049" stroke-miterlimit="1.5" stroke-linecap="round" stroke-linejoin="round"/>
</svg>
